<svg width="100" height="100" viewBox="0 0 100 100" xmlns="http://www.w3.org/2000/svg">
  <path d="M10,10 L15,10 L15,15 L10,15 Z" fill="white" fill-opacity="0.2"/>
  <path d="M30,10 L35,10 L35,15 L30,15 Z" fill="white" fill-opacity="0.2"/>
  <path d="M50,10 L55,10 L55,15 L50,15 Z" fill="white" fill-opacity="0.2"/>
  <path d="M70,10 L75,10 L75,15 L70,15 Z" fill="white" fill-opacity="0.2"/>
  <path d="M90,10 L95,10 L95,15 L90,15 Z" fill="white" fill-opacity="0.2"/>
  
  <path d="M20,20 L25,20 L25,25 L20,25 Z" fill="white" fill-opacity="0.2"/>
  <path d="M40,20 L45,20 L45,25 L40,25 Z" fill="white" fill-opacity="0.2"/>
  <path d="M60,20 L65,20 L65,25 L60,25 Z" fill="white" fill-opacity="0.2"/>
  <path d="M80,20 L85,20 L85,25 L80,25 Z" fill="white" fill-opacity="0.2"/>
  
  <path d="M10,30 L15,30 L15,35 L10,35 Z" fill="white" fill-opacity="0.2"/>
  <path d="M30,30 L35,30 L35,35 L30,35 Z" fill="white" fill-opacity="0.2"/>
  <path d="M50,30 L55,30 L55,35 L50,35 Z" fill="white" fill-opacity="0.2"/>
  <path d="M70,30 L75,30 L75,35 L70,35 Z" fill="white" fill-opacity="0.2"/>
  <path d="M90,30 L95,30 L95,35 L90,35 Z" fill="white" fill-opacity="0.2"/>
  
  <path d="M20,40 L25,40 L25,45 L20,45 Z" fill="white" fill-opacity="0.2"/>
  <path d="M40,40 L45,40 L45,45 L40,45 Z" fill="white" fill-opacity="0.2"/>
  <path d="M60,40 L65,40 L65,45 L60,45 Z" fill="white" fill-opacity="0.2"/>
  <path d="M80,40 L85,40 L85,45 L80,45 Z" fill="white" fill-opacity="0.2"/>
  
  <path d="M10,50 L15,50 L15,55 L10,55 Z" fill="white" fill-opacity="0.2"/>
  <path d="M30,50 L35,50 L35,55 L30,55 Z" fill="white" fill-opacity="0.2"/>
  <path d="M50,50 L55,50 L55,55 L50,55 Z" fill="white" fill-opacity="0.2"/>
  <path d="M70,50 L75,50 L75,55 L70,55 Z" fill="white" fill-opacity="0.2"/>
  <path d="M90,50 L95,50 L95,55 L90,55 Z" fill="white" fill-opacity="0.2"/>
  
  <path d="M20,60 L25,60 L25,65 L20,65 Z" fill="white" fill-opacity="0.2"/>
  <path d="M40,60 L45,60 L45,65 L40,65 Z" fill="white" fill-opacity="0.2"/>
  <path d="M60,60 L65,60 L65,65 L60,65 Z" fill="white" fill-opacity="0.2"/>
  <path d="M80,60 L85,60 L85,65 L80,65 Z" fill="white" fill-opacity="0.2"/>
  
  <path d="M10,70 L15,70 L15,75 L10,75 Z" fill="white" fill-opacity="0.2"/>
  <path d="M30,70 L35,70 L35,75 L30,75 Z" fill="white" fill-opacity="0.2"/>
  <path d="M50,70 L55,70 L55,75 L50,75 Z" fill="white" fill-opacity="0.2"/>
  <path d="M70,70 L75,70 L75,75 L70,75 Z" fill="white" fill-opacity="0.2"/>
  <path d="M90,70 L95,70 L95,75 L90,75 Z" fill="white" fill-opacity="0.2"/>
  
  <path d="M20,80 L25,80 L25,85 L20,85 Z" fill="white" fill-opacity="0.2"/>
  <path d="M40,80 L45,80 L45,85 L40,85 Z" fill="white" fill-opacity="0.2"/>
  <path d="M60,80 L65,80 L65,85 L60,85 Z" fill="white" fill-opacity="0.2"/>
  <path d="M80,80 L85,80 L85,85 L80,85 Z" fill="white" fill-opacity="0.2"/>
  
  <path d="M10,90 L15,90 L15,95 L10,95 Z" fill="white" fill-opacity="0.2"/>
  <path d="M30,90 L35,90 L35,95 L30,95 Z" fill="white" fill-opacity="0.2"/>
  <path d="M50,90 L55,90 L55,95 L50,95 Z" fill="white" fill-opacity="0.2"/>
  <path d="M70,90 L75,90 L75,95 L70,95 Z" fill="white" fill-opacity="0.2"/>
  <path d="M90,90 L95,90 L95,95 L90,95 Z" fill="white" fill-opacity="0.2"/>
</svg>
